<svg width="75" height="75" viewBox="0 0 75 75" fill="none" xmlns="http://www.w3.org/2000/svg">
<path d="M15.6018 46.9229C15.6018 48.4656 15.1443 49.9736 14.2871 51.2563C13.43 52.539 12.2117 53.5386 10.7864 54.1289C9.36108 54.7191 7.79273 54.8734 6.27972 54.5722C4.76671 54.271 3.37701 53.5278 2.28638 52.4368C1.19574 51.3457 0.453168 49.9557 0.152579 48.4426C-0.148011 46.9295 0.00688326 45.3612 0.597672 43.9361C1.18846 42.511 2.1886 41.2931 3.47161 40.4365C4.75461 39.5799 6.26283 39.123 7.80553 39.1236H15.6018V46.9229ZM19.5308 46.9229C19.5308 44.854 20.3527 42.8698 21.8157 41.4068C23.2786 39.9439 25.2628 39.122 27.3317 39.122C29.4007 39.122 31.3848 39.9439 32.8478 41.4068C34.3107 42.8698 35.1326 44.854 35.1326 46.9229V66.4538C35.1326 68.5223 34.3109 70.5061 32.8483 71.9687C31.3856 73.4314 29.4018 74.2531 27.3333 74.2531C25.2648 74.2531 23.281 73.4314 21.8183 71.9687C20.3557 70.5061 19.5339 68.5223 19.5339 66.4538L19.5308 46.9229ZM27.3333 15.6018C25.7906 15.6018 24.2825 15.1443 22.9999 14.2871C21.7172 13.43 20.7176 12.2117 20.1273 10.7864C19.5371 9.36108 19.3828 7.79273 19.684 6.27972C19.9852 4.76671 20.7283 3.37701 21.8194 2.28638C22.9105 1.19574 24.3005 0.453168 25.8136 0.152579C27.3267 -0.148011 28.895 0.00688326 30.3201 0.597672C31.7452 1.18846 32.9631 2.1886 33.8197 3.47161C34.6763 4.75461 35.1332 6.26283 35.1326 7.80553V15.6018H27.3333ZM27.3333 19.5308C29.4022 19.5308 31.3864 20.3527 32.8493 21.8157C34.3123 23.2786 35.1342 25.2628 35.1342 27.3317C35.1342 29.4007 34.3123 31.3848 32.8493 32.8478C31.3864 34.3107 29.4022 35.1326 27.3333 35.1326H7.79934C5.73083 35.1326 3.74704 34.3109 2.28437 32.8483C0.821714 31.3856 0 29.4018 0 27.3333C0 25.2648 0.821714 23.281 2.28437 21.8183C3.74704 20.3557 5.73083 19.5339 7.79934 19.5339L27.3333 19.5308ZM58.6544 27.3333C58.6544 25.7906 59.1119 24.2825 59.969 22.9999C60.8262 21.7172 62.0445 20.7176 63.4698 20.1273C64.8951 19.5371 66.4635 19.3828 67.9765 19.684C69.4895 19.9852 70.8792 20.7283 71.9698 21.8194C73.0604 22.9105 73.803 24.3005 74.1036 25.8136C74.4042 27.3267 74.2493 28.895 73.6585 30.3201C73.0677 31.7452 72.0676 32.9631 70.7846 33.8197C69.5016 34.6763 67.9934 35.1332 66.4507 35.1326H58.6544V27.3333ZM54.7253 27.3333C54.7253 29.4022 53.9035 31.3864 52.4405 32.8493C50.9776 34.3123 48.9934 35.1342 46.9244 35.1342C44.8555 35.1342 42.8713 34.3123 41.4084 32.8493C39.9454 31.3864 39.1236 29.4022 39.1236 27.3333V7.79934C39.1236 5.73083 39.9453 3.74704 41.4079 2.28437C42.8706 0.821714 44.8544 0 46.9229 0C48.9914 0 50.9752 0.821714 52.4379 2.28437C53.9005 3.74704 54.7222 5.73083 54.7222 7.79934L54.7253 27.3333ZM46.9229 58.6544C48.4656 58.6544 49.9736 59.1119 51.2563 59.969C52.539 60.8262 53.5386 62.0445 54.1289 63.4698C54.7191 64.8951 54.8734 66.4635 54.5722 67.9765C54.271 69.4895 53.5278 70.8792 52.4368 71.9698C51.3457 73.0604 49.9557 73.803 48.4426 74.1036C46.9295 74.4042 45.3612 74.2493 43.9361 73.6585C42.511 73.0677 41.2931 72.0676 40.4365 70.7846C39.5799 69.5016 39.123 67.9934 39.1236 66.4507V58.6544H46.9229ZM46.9229 54.7253C44.854 54.7253 42.8698 53.9035 41.4068 52.4405C39.9439 50.9776 39.122 48.9934 39.122 46.9244C39.122 44.8555 39.9439 42.8713 41.4068 41.4084C42.8698 39.9454 44.854 39.1236 46.9229 39.1236H66.4538C68.5223 39.1236 70.5061 39.9453 71.9687 41.4079C73.4314 42.8706 74.2531 44.8544 74.2531 46.9229C74.2531 48.9914 73.4314 50.9752 71.9687 52.4379C70.5061 53.9005 68.5223 54.7222 66.4538 54.7222L46.9229 54.7253Z" fill="white"/>
</svg>
